# xmcd
#
# Track frame offsets: 
#        150
#        3572
#        21993
#        38762
#        56372
#        70616
#        85737
#        101092
#        116308
#        135199
#        146790
#        160660
#        182233
#        196585
#        207779
#        221099
#        236373
#        253418
#        265016
#        285475
#        296923
#
# Disc length: 4122 seconds
#
# Revision: 1
# Processed by: cddbd v1.5.2PL0 Copyright (c) Steve Scherf et al.
# Submitted via: ExactAudioCopy v1.0b3
#
DISCID=29101815
DTITLE=Townes van Zandt - Live At The Old Quarter, Houston, Texas
DYEAR=1977
DGENRE=Country
TTITLE0=Announcement
TTITLE1=Pancho&Lefty
TTITLE2=Mr. Mudd and Mr. Gold
TTITLE3=Two Girls
TTITLE4=Fraternity Blues
TTITLE5=If I Needed You
TTITLE6=White Freight Liner Blues
TTITLE7=To Live is to Fly
TTITLE8=She Came And She Touched Me
TTITLE9=Talking Thunderbird Blues
TTITLE10=Rex's Blues
TTITLE11=For The Sake Of The Song
TTITLE12=No Place To Fall
TTITLE13=Loretta
TTITLE14=Kathleen
TTITLE15=Cocaine Blues
TTITLE16=Who Do You Love
TTITLE17=Waiting' Round To Die
TTITLE18=Tecumsaeh Valley
TTITLE19=Lungs
TTITLE20=Only Him Or Me
EXTD=YEAR: 2000
EXTT0=
EXTT1=
EXTT2=
EXTT3=
EXTT4=
EXTT5=
EXTT6=
EXTT7=
EXTT8=
EXTT9=
EXTT10=
EXTT11=
EXTT12=
EXTT13=
EXTT14=
EXTT15=
EXTT16=
EXTT17=
EXTT18=
EXTT19=
EXTT20=
PLAYORDER=
